<?xml version="1.0" encoding="UTF-8"?>
<level>
  <owner>stolbitsa</owner>
  <repo>lean-on</repo>
  <version>v1.0.0</version>
  <next number="1" owner="stolbitsa" repo="tonic"/>
  <readme>
    <en>bcaffb480468776131174cfae3497485e32eb28537a842733dfb779bc3c2e710</en>
    <ru>bcaffb480468776131174cfae3497485e32eb28537a842733dfb779bc3c2e710</ru>
  </readme>
  <license>b1b99f5538d1fd3702219bff50c665196dfa42f6ee755c37fe41a6178d6bc6e5</license>
  <exercise number="1">
    <scale>minor</scale>
    <bpm>98</bpm>
    <lowestNote>5</lowestNote>
    <tonalities>8</tonalities>
    <video name="LeanOn_0.mp4" size="1905761" type="video/mp4" volume="0.508">3308a6d0025601a0771a6447df571ca6552cdea4c20e15a2299aa3c6ad93df33</video>
    <notes>
      <note number="1" values="18" ticks="71" durationTicks="45" ppq="96" velocity="0.843"/>
      <note number="2" values="38" ticks="120" durationTicks="51" ppq="96" velocity="0.913"/>
      <note number="3" values="38" ticks="266" durationTicks="51" ppq="96" velocity="0.812"/>
      <note number="4" values="18" ticks="337" durationTicks="50" ppq="96" velocity="0.924"/>
    </notes>
  </exercise>
  <exercise number="2">
    <scale>major</scale>
    <bpm>80</bpm>
    <lowestNote>1</lowestNote>
    <tonalities>1</tonalities>
    <notes>
      <note number="1" values="1" ticks="0" durationTicks="95" ppq="96" velocity="0.843"/>
      <note number="2" values="1" ticks="96" durationTicks="95" ppq="96" velocity="0.913"/>
      <note number="3" values="1" ticks="192" durationTicks="95" ppq="96" velocity="0.913"/>
      <note number="4" values="1" ticks="288" durationTicks="95" ppq="96" velocity="0.913"/>
      <note number="5" values="1" ticks="384" durationTicks="95" ppq="96" velocity="0.913"/>
      <note number="6" values="1" ticks="480" durationTicks="95" ppq="96" velocity="0.913"/>
      <note number="7" values="1" ticks="576" durationTicks="95" ppq="96" velocity="0.913"/>
      <note number="8" values="1" ticks="672" durationTicks="95" ppq="96" velocity="0.913"/>
      <note number="9" values="1" ticks="768" durationTicks="95" ppq="96" velocity="0.913"/>
      <note number="10" values="1" ticks="864" durationTicks="95" ppq="96" velocity="0.913"/>
      <note number="11" values="1" ticks="960" durationTicks="95" ppq="96" velocity="0.913"/>
      <note number="12" values="1" ticks="1056" durationTicks="95" ppq="96" velocity="0.913"/>
    </notes>
  </exercise>
  <exercise number="3">
    <scale>major</scale>
    <bpm>80</bpm>
    <lowestNote>1</lowestNote>
    <tonalities>1</tonalities>
    <notes>
      <note number="1" values="1" ticks="0" durationTicks="95" ppq="96" velocity="0.843"/>
      <note number="2" values="1" ticks="96" durationTicks="95" ppq="96" velocity="0.913"/>
      <note number="3" values="1" ticks="192" durationTicks="95" ppq="96" velocity="0.913"/>
      <note number="4" values="1" ticks="288" durationTicks="95" ppq="96" velocity="0.913"/>
      <note number="5" values="1" ticks="384" durationTicks="95" ppq="96" velocity="0.913"/>
      <note number="6" values="1" ticks="480" durationTicks="95" ppq="96" velocity="0.913"/>
      <note number="7" values="1" ticks="576" durationTicks="95" ppq="96" velocity="0.913"/>
      <note number="8" values="1" ticks="672" durationTicks="95" ppq="96" velocity="0.913"/>
      <note number="9" values="1" ticks="768" durationTicks="95" ppq="96" velocity="0.913"/>
      <note number="10" values="1" ticks="864" durationTicks="95" ppq="96" velocity="0.913"/>
      <note number="11" values="1" ticks="960" durationTicks="95" ppq="96" velocity="0.913"/>
      <note number="12" values="1" ticks="1056" durationTicks="95" ppq="96" velocity="0.913"/>
    </notes>
  </exercise>
  <exercise number="4">
    <scale>major</scale>
    <bpm>80</bpm>
    <lowestNote>1</lowestNote>
    <tonalities>1</tonalities>
    <notes>
      <note number="1" values="1" ticks="0" durationTicks="95" ppq="96" velocity="0.843"/>
      <note number="2" values="1" ticks="96" durationTicks="95" ppq="96" velocity="0.913"/>
      <note number="3" values="1" ticks="192" durationTicks="95" ppq="96" velocity="0.913"/>
      <note number="4" values="1" ticks="288" durationTicks="95" ppq="96" velocity="0.913"/>
      <note number="5" values="1" ticks="384" durationTicks="95" ppq="96" velocity="0.913"/>
      <note number="6" values="1" ticks="480" durationTicks="95" ppq="96" velocity="0.913"/>
      <note number="7" values="1" ticks="576" durationTicks="95" ppq="96" velocity="0.913"/>
      <note number="8" values="1" ticks="672" durationTicks="95" ppq="96" velocity="0.913"/>
      <note number="9" values="1" ticks="768" durationTicks="95" ppq="96" velocity="0.913"/>
      <note number="10" values="1" ticks="864" durationTicks="95" ppq="96" velocity="0.913"/>
      <note number="11" values="1" ticks="960" durationTicks="95" ppq="96" velocity="0.913"/>
      <note number="12" values="1" ticks="1056" durationTicks="95" ppq="96" velocity="0.913"/>
    </notes>
  </exercise>
  <exercise number="5">
    <scale>major</scale>
    <bpm>80</bpm>
    <lowestNote>1</lowestNote>
    <tonalities>1</tonalities>
    <notes>
      <note number="1" values="1" ticks="0" durationTicks="95" ppq="96" velocity="0.843"/>
      <note number="2" values="1" ticks="96" durationTicks="95" ppq="96" velocity="0.913"/>
      <note number="3" values="1" ticks="192" durationTicks="95" ppq="96" velocity="0.913"/>
      <note number="4" values="1" ticks="288" durationTicks="95" ppq="96" velocity="0.913"/>
      <note number="5" values="1" ticks="384" durationTicks="95" ppq="96" velocity="0.913"/>
      <note number="6" values="1" ticks="480" durationTicks="95" ppq="96" velocity="0.913"/>
      <note number="7" values="1" ticks="576" durationTicks="95" ppq="96" velocity="0.913"/>
      <note number="8" values="1" ticks="672" durationTicks="95" ppq="96" velocity="0.913"/>
      <note number="9" values="1" ticks="768" durationTicks="95" ppq="96" velocity="0.913"/>
      <note number="10" values="1" ticks="864" durationTicks="95" ppq="96" velocity="0.913"/>
      <note number="11" values="1" ticks="960" durationTicks="95" ppq="96" velocity="0.913"/>
      <note number="12" values="1" ticks="1056" durationTicks="95" ppq="96" velocity="0.913"/>
    </notes>
  </exercise>
</level>
